<?xml version="1.0" encoding="UTF-8" standalone="no"?>
<!DOCTYPE svg PUBLIC "-//W3C//DTD SVG 1.1//EN" "http://www.w3.org/Graphics/SVG/1.1/DTD/svg11.dtd">
<svg height="40px" viewBox="0 0 900 275" preserveAspectRatio="xMidYMid meet" version="1.1" xmlns="http://www.w3.org/2000/svg" xmlns:xlink="http://www.w3.org/1999/xlink" xml:space="preserve" xmlns:serif="http://www.serif.com/" style="fill-rule:evenodd;clip-rule:evenodd;stroke-linejoin:round;stroke-miterlimit:2;">
    <g transform="matrix(1,0,0,1,-70.2544,-349.718)">
        <g transform="matrix(1,0,0,1,-8,0)">
            <g transform="matrix(0.471554,0,0,0.471554,-70.111,293.094)">
                <path d="M616.164,469.736L616.372,469.528L616.797,469.096C623.949,461.812 630.194,453.427 635.258,444.037C641.175,433.095 645.068,421.571 647.055,409.905L759.102,409.905C756.773,437.45 749.328,464.371 737.095,489.274C736.022,491.458 734.918,493.618 733.776,495.764C732.587,497.995 731.354,500.215 730.08,502.423C719.955,519.96 707.797,535.597 694.076,549.207L693.805,549.476L693.659,549.62L693.607,549.672L693.565,549.713C693.424,549.852 693.285,549.989 693.145,550.126L693.565,549.713L693.659,549.62L694.043,549.241L694.076,549.207C694.38,548.906 694.683,548.604 694.985,548.301C669.046,574.306 637.289,593.161 602.94,603.762L601.899,604.081L602.005,604.049L601.366,604.241C567.048,614.54 530.311,616.598 494.395,609.546L493.566,609.381C493.566,609.381 492.967,609.26 492.967,609.26C483.039,607.236 473.167,604.511 463.413,601.064L463.413,474.323C469.799,479.999 476.933,485.013 484.763,489.207C484.618,489.129 484.473,489.051 484.329,488.973L485.205,489.443C494.912,494.601 505.068,498.175 515.372,500.25L516.319,500.436C525.159,502.141 534.073,502.738 542.877,502.29C551.66,501.843 560.333,500.356 568.71,497.892L568.844,497.853L570.002,497.505C587.162,492.244 603.088,482.85 616.141,469.76L616.249,469.652L616.286,469.614L616.164,469.736L616.141,469.76L616.103,469.797L616.164,469.736ZM492.967,609.26L493.134,609.294L493.566,609.381C493.566,609.381 493.057,609.279 493.057,609.279L492.65,609.196L492.967,609.26ZM492.554,609.176L491.641,608.987C491.944,609.05 492.249,609.114 492.554,609.176ZM491.052,608.863L490.772,608.803L491.539,608.965L491.052,608.863ZM490.541,608.753L489.705,608.572C489.984,608.633 490.263,608.693 490.541,608.753ZM489.049,608.427L488.863,608.386L489.513,608.53L489.049,608.427ZM488.381,608.278L487.941,608.178L488.532,608.311L488.381,608.278ZM487.047,607.972L486.935,607.946L487.482,608.073L487.047,607.972ZM486.38,607.817L486.093,607.748L486.526,607.851L486.38,607.817ZM485.048,607.499L484.994,607.486L485.43,607.59L485.048,607.499ZM484.382,607.337L484.184,607.288L484.523,607.371L484.382,607.337ZM483.051,607.006L483.044,607.004L483.211,607.046L483.051,607.006ZM482.386,606.837L482.247,606.802L482.523,606.872L482.386,606.837ZM480.392,606.319L480.296,606.293L480.525,606.354L480.392,606.319ZM478.401,605.781L478.337,605.763L478.526,605.815L478.401,605.781ZM477.738,605.598L477.643,605.571L477.762,605.604L477.738,605.598ZM476.413,605.224L476.374,605.213L476.524,605.256L476.413,605.224ZM475.751,605.035L475.639,605.002L475.794,605.047L475.751,605.035ZM474.428,604.648L474.411,604.643L474.505,604.671L474.428,604.648ZM473.766,604.452L473.649,604.417L473.833,604.472L473.766,604.452ZM602.835,603.794C602.664,603.847 602.491,603.9 602.318,603.953L602.835,603.794L602.94,603.762L603.119,603.707L602.835,603.794ZM471.785,603.85L471.668,603.813L471.878,603.879L471.785,603.85ZM603.976,603.441L604.678,603.219C604.444,603.294 604.21,603.367 603.976,603.441L603.932,603.454L603.916,603.459C603.653,603.542 603.39,603.624 603.129,603.704L603.916,603.459L603.976,603.441ZM469.807,603.229L469.694,603.192L469.931,603.268L469.807,603.229ZM605.193,603.056L604.873,603.157L605.399,602.989L605.193,603.056ZM469.149,603.018L469.132,603.012L469.149,603.018ZM605.828,602.851L605.675,602.901L606.123,602.756L605.828,602.851ZM606.463,602.645L606.429,602.656L606.886,602.507L606.463,602.645ZM467.832,602.588L467.726,602.553L467.994,602.641L467.832,602.588ZM467.174,602.37L466.96,602.298L467.211,602.382L467.174,602.37ZM607.732,602.227L607.522,602.297L607.781,602.211L607.732,602.227ZM608.365,602.015L608.252,602.053L608.46,601.983L608.365,602.015ZM465.86,601.928L465.764,601.895L466.072,601.999L465.86,601.928ZM608.998,601.801L608.971,601.811L609.068,601.777L608.998,601.801ZM465.204,601.703L464.947,601.615L465.28,601.729L465.204,601.703ZM463.892,601.248L463.808,601.218L464.173,601.346L463.892,601.248ZM379.306,547.869C375.551,544.079 371.945,540.165 368.493,536.138L425.914,436.682L425.914,583.773C408.664,573.793 393.253,561.842 379.802,548.368C379.637,548.202 379.471,548.036 379.306,547.869L379.074,547.635L379.438,548.002L379.306,547.869ZM675.389,565.757L675.341,565.795L675.417,565.736L675.389,565.757ZM675.921,565.336L675.886,565.364L675.982,565.288L675.921,565.336ZM677.518,564.056L677.475,564.09L677.518,564.056ZM678.038,563.633L677.947,563.707L678.107,563.577L678.038,563.633ZM678.565,563.203L678.514,563.244L678.679,563.109L678.565,563.203ZM680.137,561.902L679.986,562.027L680.18,561.865L680.137,561.902ZM680.658,561.465L680.54,561.564L680.772,561.368L680.658,561.465ZM681.179,561.026L681.119,561.076L681.365,560.867L681.179,561.026ZM682.216,560.143L681.863,560.444L682.224,560.136L682.216,560.143ZM682.733,559.699L682.525,559.877L682.816,559.626L682.733,559.699ZM683.249,559.253L683.113,559.37L683.416,559.107L683.249,559.253ZM683.763,558.805L683.697,558.863L684.06,558.545L683.763,558.805ZM684.788,557.905L684.311,558.326L684.832,557.866L684.788,557.905ZM685.299,557.452L685.061,557.663L685.426,557.339L685.299,557.452ZM685.808,556.998L685.662,557.128L686.041,556.789L685.808,556.998ZM686.824,556.083L686.248,556.604C686.433,556.437 686.629,556.26 686.824,556.083ZM687.329,555.624L686.85,556.06L687.411,555.549L687.329,555.624ZM687.834,555.163L687.581,555.394L688.011,555L687.834,555.163ZM688.337,554.7L688.185,554.839L688.655,554.405L688.337,554.7ZM689.483,553.634L689.963,553.183C689.803,553.334 689.643,553.484 689.483,553.634L689.374,553.736L689.268,553.835C689.102,553.99 688.936,554.145 688.769,554.3L689.268,553.835L689.367,553.743L689.483,553.634ZM690.338,552.83L690.077,553.076L690.572,552.607L690.338,552.83ZM691.97,551.268L692.487,550.768C692.315,550.935 692.143,551.102 691.97,551.268L691.889,551.348L691.75,551.481L691.587,551.638L691.413,551.805L691.263,551.949L691.182,552.026C691.015,552.186 690.848,552.345 690.68,552.505L691.182,552.026L691.413,551.805L691.75,551.481L691.97,551.268ZM692.809,550.455L692.546,550.711L693.113,550.157L692.809,550.455ZM378.37,546.92C378.485,547.037 378.6,547.155 378.715,547.272C378.83,547.389 378.946,547.506 379.062,547.623L378.37,546.92ZM377.642,546.174C377.752,546.288 377.863,546.402 377.974,546.515C378.085,546.629 378.196,546.743 378.308,546.857L377.642,546.174ZM376.904,545.411C377.014,545.525 377.124,545.639 377.234,545.752C377.344,545.866 377.454,545.98 377.564,546.094L376.904,545.411ZM376.163,544.636C376.275,544.754 376.387,544.871 376.5,544.989C376.612,545.106 376.724,545.223 376.837,545.341L376.163,544.636ZM375.446,543.88L376.14,544.612L375.446,543.88ZM374.771,543.161C374.882,543.279 374.993,543.398 375.104,543.516C375.215,543.634 375.326,543.752 375.437,543.87L374.771,543.161ZM374.066,542.403C374.172,542.517 374.277,542.631 374.383,542.744C374.488,542.858 374.594,542.971 374.7,543.084L374.066,542.403ZM373.35,541.626C373.453,541.739 373.557,541.851 373.661,541.964C373.764,542.077 373.868,542.189 373.972,542.302L373.35,541.626ZM372.859,541.089L373.259,541.527L372.859,541.089ZM372.116,540.269L372.436,540.623L372.116,540.269ZM371.38,539.449L371.695,539.801L371.38,539.449ZM370.649,538.627L370.954,538.971L370.649,538.627ZM369.924,537.803L370.209,538.127L369.924,537.803ZM537.335,502.424L537.185,502.424L537.582,502.424L537.335,502.424ZM425.914,198.536L425.914,361.684L344.658,502.424C336.749,488.691 330.336,474.174 325.511,459.141L325.388,458.757C313.975,422.928 311.603,384.309 319.277,346.659L319.402,346.051C323.13,328.069 329.159,310.27 337.624,293.038C338.604,291.044 339.609,289.071 340.642,287.117L340.846,286.731C342.065,284.44 343.33,282.158 344.64,279.889C364.865,244.858 393.204,217.405 425.914,198.536ZM536.963,502.424C536.794,502.424 536.625,502.423 536.455,502.422L536.963,502.424ZM538.182,502.42L537.797,502.423L538.283,502.419L538.182,502.42ZM536.065,502.418L535.857,502.416L536.233,502.42L536.065,502.418ZM538.605,502.416L538.503,502.417L539.001,502.41L538.605,502.416ZM535.646,502.413L535.143,502.405C535.31,502.408 535.478,502.411 535.646,502.413ZM539.45,502.402L539.195,502.407L539.609,502.399L539.45,502.402ZM534.795,502.398L534.502,502.391L534.903,502.4L534.795,502.398ZM540.077,502.388L540.337,502.381L539.816,502.394C539.903,502.392 539.99,502.39 540.077,502.388ZM533.947,502.376L533.828,502.372L534.204,502.383L533.947,502.376ZM540.718,502.369L540.534,502.375L540.951,502.362L540.718,502.369ZM541.39,502.346L541.654,502.336L541.126,502.356C541.214,502.353 541.302,502.35 541.39,502.346ZM532.676,502.331L532.509,502.324L532.848,502.338L532.676,502.331ZM541.984,502.322L541.856,502.328L542.338,502.307L541.984,502.322ZM532.263,502.314L531.779,502.291C531.94,502.299 532.101,502.306 532.263,502.314ZM542.828,502.283L542.517,502.298L542.975,502.275L542.828,502.283ZM531.404,502.272L531.179,502.26L531.517,502.278L531.404,502.272ZM543.436,502.251L543.702,502.236L543.17,502.265C543.259,502.261 543.348,502.256 543.436,502.251ZM530.557,502.224L530.468,502.219L530.816,502.239L530.557,502.224ZM544.093,502.212L543.874,502.225L544.308,502.198L544.093,502.212ZM530.133,502.198L529.803,502.176L530.194,502.202L530.133,502.198ZM544.747,502.17L545.015,502.151L544.479,502.188C544.568,502.182 544.657,502.176 544.747,502.17ZM529.285,502.14L529.155,502.131L529.456,502.152L529.285,502.14ZM545.356,502.127L545.2,502.138L545.673,502.103L545.356,502.127ZM546.197,502.062L545.815,502.092L546.33,502.051L546.197,502.062ZM528.013,502.042L527.841,502.027L528.125,502.051L528.013,502.042ZM547.056,501.989L546.515,502.036C546.695,502.021 546.876,502.005 547.056,501.989ZM527.165,501.968L527.106,501.963L527.414,501.99L527.165,501.968ZM547.457,501.953L547.2,501.976L547.654,501.935L547.457,501.953ZM526.741,501.929L526.518,501.907L526.804,501.935L526.741,501.929ZM548.363,501.866L547.822,501.919C548.002,501.902 548.183,501.884 548.363,501.866ZM525.893,501.845L525.799,501.835L526.055,501.861L525.893,501.845ZM548.716,501.83L548.533,501.848L548.999,501.8L548.716,501.83ZM525.47,501.801L525.09,501.759L525.487,501.802L525.47,501.801ZM549.397,501.757C549.306,501.767 549.215,501.777 549.124,501.787L549.671,501.727L549.397,501.757ZM524.622,501.707L524.496,501.692L524.729,501.719L524.622,501.707ZM550.396,501.643L549.848,501.706C550.03,501.686 550.213,501.665 550.396,501.643ZM523.775,501.607L523.744,501.603L523.981,501.632L523.775,501.607ZM550.809,501.593L550.51,501.629L550.986,501.571L550.809,501.593ZM523.352,501.554L523.199,501.535L523.412,501.562L523.352,501.554ZM551.696,501.48L551.153,501.55C551.333,501.527 551.515,501.504 551.696,501.48ZM522.505,501.444L522.444,501.436L522.644,501.463L522.505,501.444ZM552.062,501.432L551.853,501.46L552.315,501.398L552.062,501.432ZM522.082,501.387L521.94,501.367L522.099,501.389L522.082,501.387ZM552.997,501.302L552.452,501.379C552.634,501.354 552.815,501.328 552.997,501.302ZM521.235,501.267L521.149,501.254L521.329,501.28L521.235,501.267ZM553.313,501.257L553.168,501.278L553.69,501.201L553.313,501.257ZM554.146,501.132L553.799,501.185L554.301,501.108L554.146,501.132ZM520.433,501.147L520.386,501.14L520.433,501.147ZM519.967,501.074L519.867,501.058L520.019,501.082L519.967,501.074ZM554.742,501.039L555.013,500.996L554.47,501.082C554.561,501.068 554.652,501.053 554.742,501.039ZM343.666,500.72L343.818,500.989L343.666,500.72ZM555.393,500.934L555.156,500.972L555.615,500.897L555.393,500.934ZM519.121,500.938L519.091,500.933L519.215,500.953L519.121,500.938ZM556.305,500.779L555.765,500.872C555.946,500.841 556.125,500.81 556.305,500.779ZM518.699,500.867L518.637,500.856L518.712,500.869L518.699,500.867ZM556.637,500.721L556.472,500.75L556.956,500.664L556.637,500.721ZM517.854,500.72L517.804,500.711L517.924,500.733L517.854,500.72ZM557.465,500.572L557.06,500.646L557.598,500.547L557.465,500.572ZM558.041,500.464L558.311,500.413L557.771,500.515C557.861,500.498 557.951,500.481 558.041,500.464ZM516.589,500.488L516.533,500.477L516.627,500.495L516.589,500.488ZM558.705,500.336L558.442,500.387L558.897,500.298L558.705,500.336ZM559.593,500.158L559.06,500.266C559.238,500.23 559.415,500.194 559.593,500.158ZM343.251,499.98L343.402,500.25L343.251,499.98ZM559.942,500.086L559.759,500.124L560.213,500.029L559.942,500.086ZM560.875,499.888L560.342,500.002C560.519,499.965 560.697,499.927 560.875,499.888ZM561.321,499.791L561.587,499.732L561.054,499.849C561.143,499.83 561.232,499.81 561.321,499.791ZM561.997,499.639L561.707,499.705L562.16,499.602L561.997,499.639ZM562.597,499.501L562.859,499.44L562.337,499.561C562.423,499.541 562.51,499.521 562.597,499.501ZM563.225,499.353L563.027,499.4L563.453,499.298L563.225,499.353ZM564.129,499.132L563.611,499.259C563.784,499.217 563.956,499.175 564.129,499.132ZM564.45,499.052L564.317,499.085L564.777,498.969L564.45,499.052ZM565.265,498.844L564.949,498.925L565.399,498.809L565.265,498.844ZM565.846,498.692C565.762,498.714 565.677,498.736 565.592,498.759L566.1,498.624L565.846,498.692ZM566.485,498.521L566.275,498.577L566.673,498.469L566.485,498.521ZM567.108,498.35L567.358,498.28L566.858,498.419C566.941,498.396 567.025,498.373 567.108,498.35ZM567.7,498.184L567.558,498.223L567.96,498.109L567.7,498.184ZM568.508,497.951L568.168,498.05L568.613,497.921L568.508,497.951ZM568.844,497.853L569.315,497.713C569.152,497.762 568.988,497.81 568.825,497.858L568.844,497.853ZM570.105,497.473L570.09,497.478L570.153,497.458L570.105,497.473ZM341.495,496.778L341.642,497.05L341.495,496.778ZM341.095,496.03L341.241,496.303L341.095,496.03ZM733.762,495.791L734.095,495.163C733.99,495.361 733.885,495.559 733.779,495.757L733.762,495.791ZM734.277,494.819L734.11,495.135L734.433,494.522L734.277,494.819ZM734.643,494.123L734.454,494.483L734.773,493.873L734.643,494.123ZM735.005,493.427L734.791,493.838L735.112,493.219L735.005,493.427ZM737.373,488.724C737.006,489.474 736.635,490.223 736.259,490.97C735.884,491.717 735.503,492.463 735.118,493.208C735.888,491.718 736.64,490.223 737.373,488.724ZM339.406,492.796L339.547,493.071L339.406,492.796ZM339.021,492.04L339.162,492.318L339.021,492.04ZM338.643,491.292L338.768,491.54L338.643,491.292ZM483.999,488.793L483.647,488.6L484.114,488.856L483.999,488.793ZM737.468,488.529L737.396,488.676L737.667,488.12L737.468,488.529ZM483.239,488.374L483.052,488.269L483.531,488.536L483.239,488.374ZM482.93,488.201C482.841,488.151 482.752,488.101 482.662,488.05C482.573,488 482.484,487.95 482.395,487.899L482.93,488.201ZM737.809,487.827L737.724,488.003L737.974,487.484L737.809,487.827ZM482.103,487.733L481.726,487.516L482.285,487.836L482.103,487.733ZM481.217,487.22L481.726,487.516C481.556,487.418 481.387,487.319 481.217,487.22ZM336.666,487.256L336.79,487.515L336.666,487.256ZM738.148,487.124L738.049,487.33L738.287,486.832L738.148,487.124ZM480.069,486.54L480.57,486.839C480.402,486.74 480.235,486.64 480.069,486.54ZM738.483,486.42L738.37,486.657L738.601,486.172L738.483,486.42ZM478.931,485.848L479.425,486.151C479.261,486.051 479.096,485.95 478.931,485.848ZM738.816,485.715L738.689,485.985L738.914,485.506L738.816,485.715ZM477.803,485.144L478.293,485.452C478.129,485.349 477.966,485.247 477.803,485.144ZM739.147,485.01L739.003,485.316L739.227,484.837L739.147,485.01ZM335.472,484.714L335.606,485.004L335.472,484.714ZM476.686,484.427L477.172,484.741C477.01,484.637 476.848,484.533 476.686,484.427ZM739.474,484.304L739.313,484.651L739.539,484.165L739.474,484.304ZM476.191,484.104L476.619,484.384L476.191,484.104ZM335.118,483.944L335.254,484.241L335.118,483.944ZM475.579,483.699L476.065,484.021C475.902,483.914 475.741,483.807 475.579,483.699ZM739.799,483.597L739.616,483.997L739.848,483.49L739.799,483.597ZM475.095,483.375L475.567,483.691L475.095,483.375ZM334.772,483.183L334.897,483.458L334.772,483.183ZM740.994,480.942C740.815,481.347 740.635,481.752 740.453,482.156C740.271,482.561 740.088,482.965 739.903,483.369C740.272,482.562 740.635,481.754 740.994,480.942ZM474.009,482.633L474.485,482.961C474.326,482.852 474.167,482.743 474.009,482.633ZM472.932,481.88L473.402,482.211C473.245,482.101 473.088,481.99 472.932,481.88ZM472.331,481.451C472.175,481.339 472.02,481.227 471.865,481.114L472.331,481.451ZM333.627,480.613L333.762,480.92L333.627,480.613ZM741.073,480.764L741.038,480.843L741.249,480.364L741.073,480.764ZM471.272,480.68C471.117,480.566 470.963,480.452 470.81,480.338L471.272,480.68ZM470.34,479.986L470.745,480.29L470.34,479.986ZM741.384,480.055L741.338,480.16L741.53,479.719L741.384,480.055ZM469.765,479.551L470.225,479.9C470.072,479.784 469.918,479.667 469.765,479.551ZM741.693,479.344L741.636,479.476L741.818,479.056L741.693,479.344ZM742,478.633L741.931,478.792L742.106,478.383L742,478.633ZM468.735,478.755C468.583,478.637 468.433,478.518 468.282,478.399L468.735,478.755ZM332.633,478.308L332.723,478.52L332.633,478.308ZM742.303,477.921L742.224,478.107L742.394,477.706L742.303,477.921ZM467.268,477.588L467.713,477.947C467.564,477.827 467.416,477.708 467.268,477.588ZM332.197,477.273L332.321,477.57L332.197,477.273ZM742.604,477.209L742.514,477.422L742.681,477.026L742.604,477.209ZM466.265,476.767L466.704,477.128C466.557,477.008 466.411,476.888 466.265,476.767ZM331.863,476.47L332.003,476.807L331.863,476.47ZM742.903,476.496L742.802,476.737L742.965,476.344L742.903,476.496ZM465.809,476.387L466.175,476.692L465.809,476.387ZM465.273,475.934L465.706,476.3C465.561,476.178 465.417,476.056 465.273,475.934ZM743.198,475.783L743.087,476.052L743.248,475.661L743.198,475.783ZM464.292,475.092L464.72,475.462C464.577,475.339 464.434,475.215 464.292,475.092ZM743.491,475.069L743.369,475.367L743.529,474.976L743.491,475.069ZM743.782,474.354L743.647,474.684L743.807,474.29L743.782,474.354ZM463.413,474.319L463.747,474.615L463.413,474.319ZM330.919,474.156L331.038,474.451L330.903,474.115L330.919,474.156ZM744.069,473.639L743.92,474.01L744.083,473.603L744.069,473.639ZM744.354,472.923L744.118,473.516L744.498,472.559L744.354,472.923ZM330.178,472.284L330.329,472.668L330.178,472.284ZM744.637,472.206L744.617,472.257L744.76,471.891L744.637,472.206ZM744.916,471.489L744.887,471.566L745.025,471.207L744.916,471.489ZM329.58,470.735L329.734,471.137L329.58,470.735ZM745.193,470.772L745.154,470.874L745.29,470.52L745.193,470.772ZM329.292,469.977L329.443,470.375L329.129,469.544L329.292,469.977ZM745.468,470.054L745.419,470.181L745.553,469.83L745.468,470.054ZM616.68,469.215L616.372,469.528L616.702,469.193L616.68,469.215ZM745.74,469.335L745.682,469.488L745.813,469.139L745.74,469.335ZM616.988,468.901L616.911,468.979L617.119,468.766L616.988,468.901ZM746.009,468.616L745.942,468.793L746.071,468.447L746.009,468.616ZM617.599,468.269L617.405,468.471L617.648,468.219L617.599,468.269ZM746.275,467.896L746.201,468.098L746.327,467.755L746.275,467.896ZM617.903,467.951L617.847,468.011L618.089,467.756L617.903,467.951ZM618.508,467.311L618.354,467.476L618.585,467.229L618.508,467.311ZM746.539,467.176L746.457,467.4L746.581,467.062L746.539,467.176ZM619.112,466.662C619.055,466.724 618.999,466.785 618.942,466.846C618.885,466.907 618.829,466.968 618.772,467.029L619.112,466.662ZM746.8,466.456L746.712,466.7L746.832,466.368L746.8,466.456ZM619.408,466.34L619.281,466.478L619.517,466.221L619.408,466.34ZM620.03,465.655C619.973,465.718 619.916,465.781 619.859,465.844C619.802,465.908 619.744,465.971 619.687,466.034L620.03,465.655ZM747.059,465.734L746.966,465.994L747.08,465.674L747.059,465.734ZM327.5,465.064L327.766,465.816C327.666,465.535 327.567,465.254 327.468,464.972L327.5,465.064ZM620.297,465.357L620.195,465.47L620.446,465.189L620.297,465.357ZM747.315,465.013L747.223,465.272L747.327,464.98L747.315,465.013ZM620.883,464.695L620.598,465.019L620.939,464.632L620.883,464.695ZM621.175,464.362L621.097,464.451L621.386,464.12L621.175,464.362ZM747.568,464.29L747.516,464.44L747.616,464.152L747.568,464.29ZM621.755,463.692L621.552,463.927L621.84,463.592L621.755,463.692ZM747.819,463.568L747.808,463.599L747.903,463.322L747.819,463.568ZM622.338,463.007C622.28,463.076 622.221,463.145 622.163,463.214C622.104,463.283 622.046,463.352 621.987,463.42L622.338,463.007ZM748.067,462.844L748.048,462.901L748.151,462.598L748.067,462.844ZM622.616,462.676L622.458,462.864L622.734,462.534L622.616,462.676ZM623.217,461.952C623.159,462.023 623.1,462.094 623.042,462.165C622.983,462.235 622.924,462.306 622.865,462.377L623.217,461.952ZM325.602,459.428C325.753,459.895 325.905,460.362 326.059,460.83C326.213,461.299 326.369,461.767 326.527,462.234C326.212,461.299 325.904,460.364 325.602,459.428ZM748.313,462.121L748.285,462.203L748.39,461.89L748.313,462.121ZM623.466,461.648L623.341,461.801L623.626,461.452L623.466,461.648ZM748.555,461.397L748.519,461.504L748.625,461.186L748.555,461.397ZM624.087,460.881C624.028,460.955 623.969,461.028 623.91,461.101C623.851,461.174 623.792,461.248 623.733,461.321L624.087,460.881ZM748.796,460.672L748.752,460.804L748.857,460.484L748.796,460.672ZM624.306,460.608L624.208,460.729L624.525,460.332L624.306,460.608ZM624.86,459.907L624.607,460.228L624.948,459.795L624.86,459.907ZM749.033,459.947L748.982,460.103L749.086,459.783L749.033,459.947ZM625.418,459.189C625.359,459.266 625.3,459.342 625.24,459.419C625.181,459.495 625.122,459.572 625.062,459.648L625.418,459.189ZM749.268,459.221L749.21,459.4L749.313,459.082L749.268,459.221ZM325.388,458.757L325.367,458.691L325.395,458.78C325.458,458.978 325.523,459.182 325.589,459.385L325.511,459.141L325.481,459.047L325.395,458.78L325.388,458.757ZM625.681,458.847L625.494,459.09L625.801,458.69L625.681,458.847ZM749.5,458.495L749.436,458.695L749.536,458.382L749.5,458.495ZM626.256,458.088C626.197,458.166 626.139,458.244 626.08,458.322C626.021,458.4 625.962,458.478 625.903,458.555L626.256,458.088ZM749.73,457.769L749.661,457.987L749.758,457.681L749.73,457.769ZM626.491,457.774L626.346,457.967L626.649,457.561L626.491,457.774ZM627.083,456.972C627.025,457.052 626.966,457.132 626.907,457.212C626.849,457.292 626.79,457.372 626.731,457.451L627.083,456.972ZM749.957,457.042L749.885,457.272L749.976,456.98L749.957,457.042ZM627.29,456.69L627.178,456.843L627.502,456.397L627.29,456.69ZM750.182,456.315L750.112,456.539L750.193,456.279L750.182,456.315ZM627.901,455.841C627.842,455.923 627.783,456.006 627.724,456.088C627.665,456.17 627.606,456.253 627.547,456.335L627.901,455.841ZM750.404,455.587L750.361,455.728L750.406,455.578L750.404,455.587ZM628.346,455.212C628.287,455.296 628.229,455.379 628.17,455.462C628.111,455.545 628.052,455.628 627.993,455.711L628.346,455.212ZM628.596,454.855L628.387,455.153L628.709,454.691L628.596,454.855ZM750.623,454.859L750.618,454.877L750.678,454.674L750.623,454.859ZM629.14,454.067C629.082,454.151 629.025,454.235 628.967,454.318C628.91,454.402 628.852,454.485 628.794,454.569L629.14,454.067ZM750.84,454.13L750.827,454.174L750.905,453.906L750.84,454.13ZM629.364,453.739L629.207,453.969L629.512,453.519L629.364,453.739ZM751.054,453.402L751.033,453.471L751.118,453.18L751.054,453.402ZM629.922,452.907C629.866,452.992 629.809,453.077 629.752,453.162C629.695,453.247 629.638,453.332 629.581,453.417L629.922,452.907ZM630.12,452.61L630,452.79L630.314,452.316L630.12,452.61ZM751.265,452.672L751.238,452.767L751.324,452.464L751.265,452.672ZM630.694,451.732C630.638,451.819 630.582,451.906 630.525,451.993C630.468,452.08 630.412,452.166 630.355,452.253L630.694,451.732ZM751.474,451.942L751.44,452.062L751.527,451.754L751.474,451.942ZM631.114,451.079C631.058,451.168 631.001,451.256 630.945,451.344C630.888,451.432 630.831,451.52 630.775,451.608L631.114,451.079ZM751.68,451.212L751.64,451.356L751.726,451.046L751.68,451.212ZM631.354,450.703L631.132,451.051L631.457,450.539L631.354,450.703ZM751.884,450.482L751.837,450.648L751.923,450.339L751.884,450.482ZM631.863,449.89C631.808,449.978 631.753,450.067 631.698,450.155C631.643,450.243 631.588,450.331 631.533,450.418L631.863,449.89ZM752.085,449.751L752.033,449.939L752.117,449.632L752.085,449.751ZM632.078,449.542L631.916,449.805L632.21,449.326L632.078,449.542ZM752.283,449.02L752.227,449.226L752.308,448.926L752.283,449.02ZM632.599,448.687C632.546,448.775 632.492,448.864 632.438,448.953C632.384,449.042 632.33,449.13 632.276,449.219L632.599,448.687ZM632.79,448.37L632.667,448.574L632.961,448.084L632.79,448.37ZM752.479,448.288L752.42,448.507L752.497,448.22L752.479,448.288ZM633.324,447.468C633.271,447.558 633.218,447.649 633.165,447.739C633.112,447.829 633.058,447.919 633.005,448.01L633.324,447.468ZM752.672,447.556L752.615,447.775L752.683,447.514L752.672,447.556ZM634.002,446.298L633.72,446.789L633.398,447.343C633.506,447.159 633.613,446.974 633.72,446.789C633.814,446.626 633.908,446.462 634.002,446.298ZM752.863,446.824L752.819,446.994L752.867,446.808L752.863,446.824ZM634.167,446.007L634.08,446.16L634.302,445.768L634.167,446.007ZM753.051,446.091L753.049,446.099L753.079,445.979L753.051,446.091ZM634.632,445.179C634.588,445.258 634.544,445.338 634.5,445.417C634.455,445.496 634.411,445.575 634.367,445.654L634.632,445.179ZM753.236,445.358L753.228,445.392L753.289,445.147L753.236,445.358ZM634.825,444.831L634.722,445.017L634.895,444.702L634.825,444.831ZM753.419,444.625L753.404,444.685L753.474,444.404L753.419,444.625ZM635.04,444.437L635.015,444.485L635.142,444.25L635.04,444.437ZM753.6,443.892L753.579,443.977L753.651,443.68L753.6,443.892ZM753.777,443.158L753.751,443.268L753.824,442.964L753.777,443.158ZM753.952,442.423L753.92,442.558L753.993,442.25L753.952,442.423ZM754.125,441.689L754.088,441.847L754.16,441.538L754.125,441.689ZM754.295,440.954L754.253,441.135L754.324,440.827L754.295,440.954ZM754.462,440.219L754.417,440.419L754.485,440.117L754.462,440.219ZM754.627,439.483L754.579,439.699L754.644,439.406L754.627,439.483ZM754.789,438.748L754.741,438.969L754.801,438.696L754.789,438.748ZM754.949,438.012L754.906,438.21L754.955,437.987L754.949,438.012ZM755.261,436.539L755.256,436.564L755.302,436.34L755.261,436.539ZM755.413,435.802L755.402,435.854L755.458,435.579L755.413,435.802ZM755.562,435.065L755.547,435.143L755.606,434.848L755.562,435.065ZM755.709,434.328L755.689,434.431L755.749,434.126L755.709,434.328ZM755.853,433.591L755.828,433.718L755.888,433.408L755.853,433.591ZM755.995,432.853L755.966,433.005L756.025,432.693L755.995,432.853ZM756.134,432.115L756.101,432.29L756.159,431.978L756.134,432.115ZM756.271,431.377L756.234,431.573L756.291,431.265L756.271,431.377ZM756.405,430.638L756.366,430.853L756.42,430.552L756.405,430.638ZM756.536,429.9L756.496,430.125L756.547,429.839L756.536,429.9ZM756.665,429.161L756.627,429.379L756.671,429.127L756.665,429.161ZM756.792,428.422L756.77,428.547L756.793,428.414L756.792,428.422ZM756.916,427.683L756.913,427.7L756.945,427.504L756.916,427.683ZM757.037,426.944L757.03,426.987L757.073,426.719L757.037,426.944ZM757.156,426.204L757.144,426.274L757.191,425.98L757.156,426.204ZM757.272,425.465L757.257,425.56L757.304,425.254L757.272,425.465ZM757.385,424.725L757.367,424.846L757.414,424.534L757.385,424.725ZM757.497,423.985L757.475,424.131L757.521,423.816L757.497,423.985ZM757.605,423.245L757.58,423.414L757.626,423.099L757.605,423.245ZM757.711,422.505L757.684,422.696L757.728,422.383L757.711,422.505ZM757.815,421.764L757.785,421.975L757.828,421.668L757.815,421.764ZM757.916,421.024L757.885,421.249L757.925,420.954L757.916,421.024ZM758.014,420.283L757.984,420.51L758.02,420.239L758.014,420.283ZM758.11,419.542L758.086,419.726L758.112,419.525L758.11,419.542ZM758.203,418.802L758.202,418.81L758.22,418.669L758.203,418.802ZM758.294,418.061L758.29,418.096L758.321,417.839L758.294,418.061ZM758.383,417.32L758.375,417.381L758.409,417.091L758.383,417.32ZM758.468,416.579L758.458,416.666L758.493,416.361L758.468,416.579ZM758.552,415.837L758.539,415.951L758.574,415.638L758.552,415.837ZM758.633,415.096L758.617,415.234L758.651,414.918L758.633,415.096ZM758.711,414.355L758.694,414.517L758.727,414.2L758.711,414.355ZM758.787,413.613L758.768,413.798L758.799,413.483L758.787,413.613ZM758.86,412.872L758.839,413.078L758.87,412.767L758.86,412.872ZM758.93,412.13L758.909,412.353L758.938,412.051L758.93,412.13ZM758.999,411.389L758.978,411.618L759.003,411.335L758.999,411.389ZM759.064,410.647L759.046,410.857L759.067,410.62L759.064,410.647ZM319.402,346.051L319.469,345.728C319.404,346.037 319.341,346.346 319.277,346.658L319.275,346.666L319.363,346.239L319.402,346.051ZM321.689,336.143C321.486,336.935 321.289,337.728 321.096,338.522C320.902,339.315 320.714,340.109 320.53,340.903C320.898,339.314 321.285,337.726 321.689,336.143ZM322.667,332.443L322.488,333.104L322.667,332.443ZM324,327.778L323.808,328.427L324,327.778ZM324.936,324.714L324.927,324.743L324.642,325.659C324.736,325.354 324.831,325.048 324.927,324.743L324.936,324.714C325.033,324.405 325.13,324.097 325.228,323.788L324.936,324.714ZM325.522,322.872L325.259,323.691L325.522,322.872ZM326.122,321.041L325.92,321.654L326.122,321.041ZM327.057,318.294L326.863,318.854L327.057,318.294ZM329.526,311.54L329.514,311.572L329.173,312.465C329.286,312.167 329.399,311.87 329.514,311.572L329.526,311.54C329.643,311.235 329.761,310.93 329.88,310.625L329.526,311.54ZM463.413,181.309C504.828,166.739 550.372,164.406 594.046,175.919C606.876,179.312 619.573,183.905 631.994,189.746L575.968,286.786C572.653,285.557 569.305,284.495 565.933,283.598L565.124,283.386L564.72,283.283C528.661,274.101 490.644,283.784 463.413,307.976L463.413,181.309ZM464.243,307.258L464.052,307.424L464.243,307.258ZM464.686,306.874L464.496,307.038L464.686,306.874ZM465.575,306.116L465.39,306.272L465.575,306.116ZM466.02,305.743L465.84,305.893L466.02,305.743ZM332.079,305.191L331.839,305.764L332.079,305.191ZM332.462,304.283L332.219,304.858L332.462,304.283ZM332.852,303.371L332.602,303.954L332.852,303.371ZM469.92,302.635L469.778,302.743L469.92,302.635ZM471.776,301.254L471.629,301.361L471.776,301.254ZM473.558,299.983L473.524,300.006L473.558,299.983ZM335.443,297.582L335.836,296.739C335.704,297.02 335.573,297.301 335.443,297.582L335.417,297.637L335.396,297.682C335.267,297.96 335.139,298.238 335.011,298.516L334.992,298.557L334.969,298.609C334.837,298.895 334.707,299.181 334.577,299.467L334.969,298.609L335.011,298.516L335.396,297.682L335.443,297.582ZM476.82,297.79L476.743,297.84L476.82,297.79ZM478.264,296.872L478.177,296.927L478.264,296.872ZM484.519,293.24L484.512,293.243L484.519,293.24ZM485.012,292.976L485.006,292.979L485.012,292.976ZM340.329,287.709L339.942,288.448L340.329,287.709ZM340.843,286.737L340.869,286.688L340.843,286.737C340.696,287.013 340.549,287.29 340.403,287.567L340.642,287.117L340.661,287.081L340.843,286.737ZM564.941,283.339L564.925,283.335L564.941,283.339ZM563.822,283.059L563.819,283.058L563.822,283.059ZM631.405,189.458L631.207,189.366L631.405,189.458ZM630.214,188.906L629.96,188.789L630.214,188.906ZM628.426,188.092L628.15,187.969L628.426,188.092ZM624.24,186.261L623.944,186.136L624.24,186.261ZM623.042,185.756L622.74,185.63L623.042,185.756ZM622.444,185.507L622.137,185.38L622.444,185.507ZM620.075,184.54L619.723,184.399L620.075,184.54ZM618.998,184.111C618.639,183.969 618.279,183.828 617.919,183.687C617.559,183.547 617.199,183.408 616.838,183.27C617.559,183.546 618.279,183.826 618.998,184.111ZM616.739,183.232L616.28,183.056L616.739,183.232ZM614.333,182.326L613.903,182.168L614.333,182.326ZM609.555,180.622L609.051,180.45L609.555,180.622ZM607.818,180.033C606.028,179.434 604.233,178.859 602.435,178.308C600.638,177.757 598.836,177.231 597.032,176.728C600.643,177.734 604.239,178.836 607.818,180.033ZM597.031,176.728L596.432,176.562L597.031,176.728ZM594.016,175.911L594.055,175.921C594.237,175.969 594.426,176.019 594.616,176.07L594.016,175.911Z" style="fill:url(#_Linear1);"/>
            </g>
            <g transform="matrix(0.408378,0.235777,-0.235777,0.408378,56.1303,191.176)">
                <path d="M608.351,601.989C588.245,608.784 566.843,612.782 544.617,613.515C547.091,613.431 549.572,613.305 552.06,613.138C571.679,611.822 590.537,607.996 608.351,601.989ZM463.413,601.095C468.635,602.934 473.942,604.583 479.322,606.032C473.934,604.584 468.629,602.939 463.413,601.105L463.413,601.095ZM608.506,601.937L608.363,601.985L608.711,601.867L608.506,601.937ZM387.341,555.587C399.13,566.324 412.061,575.798 425.914,583.816L425.914,583.837C412.04,575.805 399.112,566.318 387.341,555.587ZM386.883,555.169L387.086,555.354L386.944,555.225L386.883,555.169ZM699.596,543.151L699.52,543.232L699.67,543.072L699.596,543.151ZM752.244,448.382C742.703,484.253 724.417,516.576 699.819,542.912C724.49,516.469 742.726,484.087 752.244,448.382ZM509.051,498.782C518.031,501.124 527.453,502.371 537.165,502.371C538.325,502.371 539.482,502.353 540.64,502.317C529.743,502.663 519.136,501.417 509.051,498.782ZM541.032,502.304L540.891,502.309L541.141,502.3L541.032,502.304ZM508.504,498.638L508.955,498.757L508.63,498.672L508.504,498.638ZM507.942,498.486L508.083,498.524L507.971,498.494L507.942,498.486ZM572.761,496.545L572.67,496.576L572.785,496.537L572.761,496.545ZM618.117,467.407C605.853,480.425 590.456,490.527 573.03,496.454C590.38,490.542 605.808,480.461 618.117,467.407ZM618.226,467.292L618.163,467.359L618.417,467.088L618.226,467.292ZM618.682,466.804L618.67,466.816L618.716,466.767L618.682,466.804ZM326.071,461.669L326.217,462.105L326.156,461.925L326.071,461.669ZM314.764,398.877C314.849,401.247 314.97,403.62 315.13,405.999C316.429,425.373 320.177,444.004 326.053,461.616C319.427,441.796 315.516,420.735 314.764,398.877ZM752.342,448.015L752.339,448.027L752.342,448.015ZM644.732,419.638L644.679,419.837L644.746,419.587L644.732,419.638ZM648.374,387.511C648.737,398.542 647.468,409.276 644.777,419.47C647.162,410.411 648.432,400.905 648.432,391.104C648.432,389.901 648.412,388.703 648.374,387.511ZM314.76,398.75L314.762,398.819L314.761,398.788L314.76,398.75ZM507.683,283.791C460.561,296.726 425.898,339.899 425.898,391.104C425.898,391.736 425.903,392.367 425.914,393.002L425.914,393.121C424.935,341.673 459.376,297.009 507.683,283.791ZM648.365,387.229L648.365,387.24L648.365,387.229ZM738.574,296.47L738.596,296.457C751.115,323.029 758.53,352.473 759.571,383.519C759.487,381.079 759.363,378.647 759.199,376.208C757.342,348.526 750.329,321.489 738.574,296.47ZM555.914,169.35C623.733,175.017 682.949,211.155 719.808,264.005L622.756,320.038C606.133,300.043 582.639,285.955 555.914,281.413L555.914,169.35ZM518.415,169.361C504.727,170.513 491.424,172.887 478.608,176.367C491.458,172.867 504.763,170.491 518.415,169.35L518.415,169.361Z" style="fill:white;"/>
            </g>
            <g transform="matrix(0.536102,0,0,0.400416,-94.3687,287.014)">
                <path d="M385.163,205.327L385.163,156.597L356.715,156.597L356.715,205.327L321.997,205.327L321.997,730.655L356.715,730.655L356.715,907.229L385.163,907.229L385.163,730.655L419.881,730.655L419.881,205.327L385.163,205.327Z" style="fill:url(#_Linear2);"/>
            </g>
        </g>
        <g transform="matrix(1.45341,0,0,1.45341,-238.632,209.633)">
            <text x="378.356px" y="171.016px" style="font-family:'GothamRounded-Bold', 'Gotham Rounded';font-size:101.266px;fill:white;">portf<tspan x="635.977px 703.217px " y="171.016px 171.016px ">ol</tspan>io</text>
            <text x="378.356px" y="259.202px" style="font-family:'GothamRounded-Bold', 'Gotham Rounded';font-size:101.266px;fill:white;">ma<tspan x="534.002px 576.027px " y="259.202px 259.202px ">tr</tspan>ix</text>
        </g>
    </g>
    <defs>
        <linearGradient id="_Linear1" x1="0" y1="0" x2="1" y2="0" gradientUnits="userSpaceOnUse" gradientTransform="matrix(3.90283e-14,637.381,-875.332,5.35986e-14,517,120.09)"><stop offset="0" style="stop-color:rgb(0,230,255);stop-opacity:1"/><stop offset="1" style="stop-color:rgb(44,133,255);stop-opacity:1"/></linearGradient>
        <linearGradient id="_Linear2" x1="0" y1="0" x2="1" y2="0" gradientUnits="userSpaceOnUse" gradientTransform="matrix(3.43292e-14,750.618,-769.939,6.31209e-14,500,156.611)"><stop offset="0" style="stop-color:rgb(0,230,255);stop-opacity:1"/><stop offset="1" style="stop-color:rgb(44,133,255);stop-opacity:1"/></linearGradient>
    </defs>
</svg>
